{
    "asset" : {
        "generator" : "Khronos glTF Blender I/O v1.8.19",
        "version" : "2.0"
    },
    "scene" : 0,
    "scenes" : [
        {
            "name" : "Scene",
            "nodes" : [
                0,
                1,
                2,
                3
            ]
        }
    ],
    "nodes" : [
        {
            "mesh" : 0,
            "name" : "Garde_Plane.002",
            "rotation" : [
                0.7071068286895752,
                0,
                0,
                0.7071067094802856
            ]
        },
        {
            "mesh" : 1,
            "name" : "Pommeau_Plane.001",
            "rotation" : [
                0.7071068286895752,
                0,
                0,
                0.7071067094802856
            ]
        },
        {
            "mesh" : 2,
            "name" : "Manche_Circle",
            "rotation" : [
                0.7071068286895752,
                0,
                0,
                0.7071067094802856
            ]
        },
        {
            "mesh" : 3,
            "name" : "Lame_Plane",
            "rotation" : [
                0.7071068286895752,
                0,
                0,
                0.7071067094802856
            ]
        }
    ],
    "materials" : [
        {
            "doubleSided" : true,
            "name" : "Sting",
            "pbrMetallicRoughness" : {
                "baseColorFactor" : [
                    0.11140453070402145,
                    0.051990706473588943,
                    0.8000000715255737,
                    1
                ],
                "metallicFactor" : 0,
                "roughnessFactor" : 0.5
            }
        },
        {
            "doubleSided" : true,
            "name" : "Sting.001",
            "pbrMetallicRoughness" : {
                "baseColorFactor" : [
                    0.8000000715255737,
                    0.005633546505123377,
                    0.021844955161213875,
                    1
                ],
                "metallicFactor" : 0,
                "roughnessFactor" : 0.5
            }
        }
    ],
    "meshes" : [
        {
            "name" : "Garde_Plane.002",
            "primitives" : [
                {
                    "attributes" : {
                        "POSITION" : 0,
                        "NORMAL" : 1,
                        "TEXCOORD_0" : 2
                    },
                    "indices" : 3,
                    "material" : 0
                }
            ]
        },
        {
            "name" : "Pommeau_Plane.001",
            "primitives" : [
                {
                    "attributes" : {
                        "POSITION" : 4,
                        "NORMAL" : 5,
                        "TEXCOORD_0" : 6
                    },
                    "indices" : 7,
                    "material" : 0
                }
            ]
        },
        {
            "name" : "Manche_Circle",
            "primitives" : [
                {
                    "attributes" : {
                        "POSITION" : 8,
                        "NORMAL" : 9,
                        "TEXCOORD_0" : 10
                    },
                    "indices" : 11,
                    "material" : 1
                }
            ]
        },
        {
            "name" : "Lame_Plane",
            "primitives" : [
                {
                    "attributes" : {
                        "POSITION" : 12,
                        "NORMAL" : 13,
                        "TEXCOORD_0" : 14
                    },
                    "indices" : 15,
                    "material" : 0
                }
            ]
        }
    ],
    "accessors" : [
        {
            "bufferView" : 0,
            "componentType" : 5126,
            "count" : 665,
            "max" : [
                6.35331392288208,
                12.812915802001953,
                0.8553460240364075
            ],
            "min" : [
                -6.35331392288208,
                10.559186935424805,
                -0.8553460240364075
            ],
            "type" : "VEC3"
        },
        {
            "bufferView" : 1,
            "componentType" : 5126,
            "count" : 665,
            "type" : "VEC3"
        },
        {
            "bufferView" : 2,
            "componentType" : 5126,
            "count" : 665,
            "type" : "VEC2"
        },
        {
            "bufferView" : 3,
            "componentType" : 5123,
            "count" : 3840,
            "type" : "SCALAR"
        },
        {
            "bufferView" : 4,
            "componentType" : 5126,
            "count" : 314,
            "max" : [
                2.077263116836548,
                30.26821517944336,
                0.7604100108146667
            ],
            "min" : [
                -2.077263116836548,
                25.67839241027832,
                -0.7604100108146667
            ],
            "type" : "VEC3"
        },
        {
            "bufferView" : 5,
            "componentType" : 5126,
            "count" : 314,
            "type" : "VEC3"
        },
        {
            "bufferView" : 6,
            "componentType" : 5126,
            "count" : 314,
            "type" : "VEC2"
        },
        {
            "bufferView" : 7,
            "componentType" : 5123,
            "count" : 1872,
            "type" : "SCALAR"
        },
        {
            "bufferView" : 8,
            "componentType" : 5126,
            "count" : 189,
            "max" : [
                1.7000000476837158,
                28.805076599121094,
                0.7676460146903992
            ],
            "min" : [
                -1.7000000476837158,
                11.886924743652344,
                -0.7676460146903992
            ],
            "type" : "VEC3"
        },
        {
            "bufferView" : 9,
            "componentType" : 5126,
            "count" : 189,
            "type" : "VEC3"
        },
        {
            "bufferView" : 10,
            "componentType" : 5126,
            "count" : 189,
            "type" : "VEC2"
        },
        {
            "bufferView" : 11,
            "componentType" : 5123,
            "count" : 960,
            "type" : "SCALAR"
        },
        {
            "bufferView" : 12,
            "componentType" : 5126,
            "count" : 193,
            "max" : [
                3.6767890453338623,
                12.241557121276855,
                0.5919309854507446
            ],
            "min" : [
                -3.6767890453338623,
                -30.34036636352539,
                -0.5919309854507446
            ],
            "type" : "VEC3"
        },
        {
            "bufferView" : 13,
            "componentType" : 5126,
            "count" : 193,
            "type" : "VEC3"
        },
        {
            "bufferView" : 14,
            "componentType" : 5126,
            "count" : 193,
            "type" : "VEC2"
        },
        {
            "bufferView" : 15,
            "componentType" : 5123,
            "count" : 1116,
            "type" : "SCALAR"
        }
    ],
    "bufferViews" : [
        {
            "buffer" : 0,
            "byteLength" : 7980,
            "byteOffset" : 0
        },
        {
            "buffer" : 0,
            "byteLength" : 7980,
            "byteOffset" : 7980
        },
        {
            "buffer" : 0,
            "byteLength" : 5320,
            "byteOffset" : 15960
        },
        {
            "buffer" : 0,
            "byteLength" : 7680,
            "byteOffset" : 21280
        },
        {
            "buffer" : 0,
            "byteLength" : 3768,
            "byteOffset" : 28960
        },
        {
            "buffer" : 0,
            "byteLength" : 3768,
            "byteOffset" : 32728
        },
        {
            "buffer" : 0,
            "byteLength" : 2512,
            "byteOffset" : 36496
        },
        {
            "buffer" : 0,
            "byteLength" : 3744,
            "byteOffset" : 39008
        },
        {
            "buffer" : 0,
            "byteLength" : 2268,
            "byteOffset" : 42752
        },
        {
            "buffer" : 0,
            "byteLength" : 2268,
            "byteOffset" : 45020
        },
        {
            "buffer" : 0,
            "byteLength" : 1512,
            "byteOffset" : 47288
        },
        {
            "buffer" : 0,
            "byteLength" : 1920,
            "byteOffset" : 48800
        },
        {
            "buffer" : 0,
            "byteLength" : 2316,
            "byteOffset" : 50720
        },
        {
            "buffer" : 0,
            "byteLength" : 2316,
            "byteOffset" : 53036
        },
        {
            "buffer" : 0,
            "byteLength" : 1544,
            "byteOffset" : 55352
        },
        {
            "buffer" : 0,
            "byteLength" : 2232,
            "byteOffset" : 56896
        }
    ],
    "buffers" : [
        {
            "byteLength" : 59128,
            "uri" : "data:application/octet-stream;base64,"
        }
    ]
}
